<svg width="34" height="34" viewBox="0 0 34 34" fill="none" xmlns="http://www.w3.org/2000/svg">
<path fill-rule="evenodd" clip-rule="evenodd" d="M21.4005 23.471C18.7695 25.5732 15.4335 26.5882 12.0776 26.3075C8.72169 26.0267 5.60065 24.4716 3.35547 21.9614C1.1103 19.4513 -0.0885654 16.1767 0.00510278 12.8102C0.0987709 9.44364 1.47786 6.24077 3.85914 3.85936C6.24041 1.47795 9.4431 0.0987766 12.8094 0.00510307C16.1758 -0.0885705 19.4502 1.11036 21.9602 3.35567C24.4702 5.60097 26.0252 8.7222 26.3059 12.0783C26.5867 15.4344 25.5717 18.7706 23.4696 21.4017L33.534 31.4648C33.6779 31.5988 33.7932 31.7605 33.8733 31.9401C33.9533 32.1196 33.9963 32.3135 33.9998 32.5101C34.0032 32.7067 33.9671 32.9019 33.8934 33.0842C33.8198 33.2665 33.7102 33.4322 33.5712 33.5712C33.4322 33.7102 33.2666 33.8198 33.0843 33.8934C32.902 33.9671 32.7068 34.0032 32.5102 33.9998C32.3136 33.9963 32.1198 33.9533 31.9402 33.8732C31.7606 33.7932 31.599 33.6779 31.4649 33.534L21.4005 23.471ZM5.92907 20.4218C4.49639 18.9889 3.52062 17.1634 3.12507 15.176C2.72952 13.1887 2.93194 11.1287 3.70676 9.25637C4.48158 7.38404 5.79401 5.78344 7.47819 4.65684C9.16237 3.53024 11.1427 2.92822 13.1689 2.92686C15.1951 2.92549 17.1763 3.52485 18.862 4.64918C20.5477 5.77351 21.8623 7.37235 22.6396 9.24363C23.4169 11.1149 23.6221 13.1746 23.2293 15.1625C22.8364 17.1504 21.8631 18.9772 20.4323 20.412L20.4226 20.4218L20.4128 20.4296C18.4903 22.3478 15.885 23.4244 13.1693 23.4229C10.4536 23.4214 7.84952 22.342 5.92907 20.4218Z" fill="#B6947B"/>
</svg>
