<svg width="30" height="39" viewBox="0 0 30 39" fill="none" xmlns="http://www.w3.org/2000/svg">
<path d="M15.0024 39C17.1777 39 18.9575 37.2 18.9575 35H11.0474C11.0474 36.0609 11.4641 37.0783 12.2058 37.8284C12.9475 38.5786 13.9535 39 15.0024 39ZM26.8676 27V17C26.8676 10.86 23.6244 5.72 17.9687 4.36V3C17.9687 1.34 16.6438 0 15.0024 0C13.3611 0 12.0362 1.34 12.0362 3V4.36C6.36066 5.72 3.1373 10.84 3.1373 17V27L0.586291 29.58C-0.659549 30.84 0.210561 33 1.97056 33H28.0145C29.7745 33 30.6644 30.84 29.4186 29.58L26.8676 27Z" fill="#B6947B"/>
</svg>
